<?xml version="1.0" standalone="yes"?>
<svg xmlns="http://www.w3.org/2000/svg" width="500" height="500">
<path style="fill:#ffffff; stroke:none;" d="M0 0L0 500L500 500L500 0L0 0z"/>
<path style="fill:#b58eff; stroke:none;" d="M140 191L141 192L140 191z"/>
<path style="fill:#5800ff; stroke:none;" d="M140 274C145.09 272.071 149.377 268.65 154 265.811C158.111 263.286 163.052 260.994 165.772 256.826C168.449 252.725 168 247.671 168 243C168.001 232.954 169.861 220.802 167.606 211C165.762 202.988 156.372 198.903 150 194.951C147.941 193.673 144.186 190.527 141.603 192.136C140.042 193.108 140.09 195.411 140.019 197.005C139.8 201.984 140 207.016 140 212L140 274z"/>
<path style="fill:#cdb2ff; stroke:none;" d="M144 191L145 192L144 191z"/>
<path style="fill:#9e6bff; stroke:none;" d="M139 193L139 274C141.497 268.049 140 259.42 140 253L140 212C140 206.113 141.292 198.462 139 193z"/>
<path style="fill:#9f6dff; stroke:none;" d="M147 193L148 194L147 193z"/>
<path style="fill:#d1b8ff; stroke:none;" d="M149 194L150 195L149 194z"/>
<path style="fill:#9056ff; stroke:none;" d="M150 195L151 196L150 195z"/>
<path style="fill:#b994ff; stroke:none;" d="M152 196L153 197L152 196z"/>
<path style="fill:#a170ff; stroke:none;" d="M155 198L156 199L155 198z"/>
<path style="fill:#a06eff; stroke:none;" d="M158 200L159 201L158 200M161 202L162 203L161 202z"/>
<path style="fill:#d3bcff; stroke:none;" d="M164 204L165 205L164 204z"/>
<path style="fill:#a271ff; stroke:none;" d="M166 207L167 208L166 207z"/>
<path style="fill:#45b7e8; stroke:none;" d="M110.667 208.333C110.222 208.778 111.278 208.722 111.333 208.667C111.778 208.222 110.722 208.278 110.667 208.333z"/>
<path style="fill:#99d7f2; stroke:none;" d="M112 208L113 209L112 208z"/>
<path style="fill:#009cdf; stroke:none;" d="M109 209L109 241L109 262C109 266.087 107.715 272.891 110.028 276.471C115.933 285.614 129.207 284.842 135.397 276.674C139.091 271.799 137 260.846 137 255C137 246.477 138.942 235.168 136.347 227.004C134.993 222.743 131.548 220.619 127.999 218.309C122.117 214.478 116.2 209.482 109 209z"/>
<path style="fill:#bd9aff; stroke:none;" d="M167 209L168 210L167 209z"/>
<path style="fill:#57beea; stroke:none;" d="M108 210L108 276C109.981 271.28 109 265.08 109 260L109 228C109 222.381 110.189 215.216 108 210z"/>
<path style="fill:#8bd2f0; stroke:none;" d="M115 210L116 211L115 210z"/>
<path style="fill:#b6e3f6; stroke:none;" d="M117 211L118 212L117 211z"/>
<path style="fill:#45b7e8; stroke:none;" d="M118 212L119 213L118 212z"/>
<path style="fill:#90d4f1; stroke:none;" d="M120 213L121 214L120 213z"/>
<path style="fill:#e3d5ff; stroke:none;" d="M168 213L168 251C171.105 243.6 169 232.007 169 224C169 220.298 169.441 216.435 168 213z"/>
<path style="fill:#00d7ff; stroke:none;" d="M79 215C76.4695 223.561 77.9994 234.099 78 243C78.0003 247.323 77.503 252.132 79.858 255.985C84.6678 263.856 97.8382 270.185 106 274L106 247C106 242.567 106.79 237.184 104.91 233.04C101.403 225.307 86.8362 217.306 79 215z"/>
<path style="fill:#52e4ff; stroke:none;" d="M81 215L82 216L81 215z"/>
<path style="fill:#76caee; stroke:none;" d="M123 215L124 216L123 215z"/>
<path style="fill:#85ecff; stroke:none;" d="M83 216L84 217L83 216z"/>
<path style="fill:#b9e4f6; stroke:none;" d="M125 216L126 217L125 216z"/>
<path style="fill:#fefefe; stroke:none;" d="M250 267C245.824 270.566 242.21 274.939 236.09 273.718C232.041 272.911 229.419 270.143 225 270.228C214.226 270.434 205.125 274.701 195.155 268.049C191.729 265.763 187.133 262.396 185.009 258.829C178.453 247.821 182.99 231.993 193.015 224.8C200.26 219.601 212.001 218.206 219.996 222.653C224.075 224.921 226.779 229.697 231.174 231.293C235.15 232.737 239.047 230.453 243 230.105C247.376 229.719 251.641 230.907 256 230.985C260.885 231.071 264.364 228.432 269.015 228.058C275.243 227.557 280.067 231.254 286 231.228C293.909 231.194 301.777 227.945 310 228.001C315.623 228.039 319.627 231.97 325.001 231.863C332.676 231.709 340.032 227.794 348 228.097C353.645 228.312 357.377 233.567 362.957 233.809C367.005 233.984 369.346 229.981 373.015 228.804C380.357 226.448 395.784 227.088 401.721 232.499C409.687 239.759 405.738 257.652 405 267C401.698 268.075 400.021 270.879 396.907 272.298C391.543 274.742 383.739 274.477 378 273.826C371.06 273.038 366.198 268.169 359 268C355.84 273.606 351.032 272.348 346.09 275.027C340.358 278.133 337.822 284.851 330.015 282.485C324.489 280.811 323.86 273.495 317.981 273.152C308.734 272.612 304.885 282.025 296.961 282.851C288.802 283.701 288.515 276.232 282.726 273.603C277.966 271.442 271.114 273.526 266 272.79C260.62 272.016 255.951 268.977 251 267C256.521 278.56 271.498 277.951 282 275C282.724 277.07 283.388 279.154 284.702 280.95C288.924 286.719 298.007 287.479 303.957 283.91C306.784 282.214 308.288 279.008 311.209 277.513C313.82 276.177 317.181 275.793 320 275C321.639 284.045 330.324 288.153 338.985 285.146C342.711 283.852 344.37 280.837 347.325 278.549C350.447 276.132 359.062 273.213 363 273.133C366.636 273.059 370.437 275.57 374 276.331C384.376 278.548 404.336 277.923 406.671 265C407.543 260.169 407 254.892 407 250C407 245.475 407.602 240.414 406.442 236C403.163 223.521 382.16 223.925 372 226.376C368.656 227.182 365.238 230.224 361.715 229.208C352.086 226.431 344.228 225.337 334 226.09C330.32 226.361 326.674 228.235 323 228.015C318.249 227.732 313.918 225.652 309 225.71C304.414 225.764 299.546 225.692 295 226.289C291.712 226.721 288.331 228.226 285 228.016C280.249 227.717 275.884 225.185 271 225.179C266.556 225.174 262.367 226.878 258 227.316C254.302 227.686 250.67 226.347 247 226.09C243.082 225.815 238.943 226.732 235.09 226.258C232.132 225.895 230.247 223.447 227.961 221.784C224.692 219.407 220.947 217.586 217 216.681C204.63 213.841 189.669 217.061 182.248 228.015C170.905 244.759 178.339 269.701 198 275.56C208.355 278.646 215.153 274.607 225 273.228C228.208 272.779 230.974 274.763 234 275.468C241.152 277.133 248.459 274.57 250 267z"/>
<path style="fill:#d5f8ff; stroke:none;" d="M77 217L77 252C79.8021 245.322 78 235.216 78 228C78 224.298 78.4412 220.435 77 217z"/>
<path style="fill:#5dc0eb; stroke:none;" d="M126 217L127 218L126 217z"/>
<path style="fill:#68e7ff; stroke:none;" d="M86 218L87 219L86 218z"/>
<path style="fill:#b0e0f5; stroke:none;" d="M128 218L129 219L128 218z"/>
<path style="fill:#58beea; stroke:none;" d="M129 219L130 220L129 219z"/>
<path style="fill:#7eebff; stroke:none;" d="M89 220L90 221L89 220z"/>
<path style="fill:#79cbee; stroke:none;" d="M131 220L132 221L131 220z"/>
<path style="fill:#f8f8f8; stroke:none;" d="M187 261C185.171 255.151 183.414 249.203 184.3 243C186.376 228.476 199.848 219.798 214 222.329C221.449 223.662 223.477 229.914 229.465 233.062C232.729 234.778 237.427 234 241 234L241 238C243.452 236.546 246.015 234.552 248.961 234.356C251.773 234.17 254.184 236.004 257.039 235.683C262.636 235.053 267.083 231.761 272.999 232.048C279.602 232.368 285.026 235.981 292 236C297.034 227.382 312.432 232.066 320 233.862C328.895 235.973 338.489 229.986 348 231.185C355.188 232.092 359.431 238.169 367 236C361.59 233.486 354.965 228.479 349 228.062C344.131 227.721 337.727 228.421 333 229.609C330.022 230.357 327.169 231.978 324.004 231.679C319.97 231.298 317.2 228.199 312.985 228.019C306.64 227.749 300.249 228.007 294 229.171C291.212 229.69 288.446 231.142 285.576 231.041C279.857 230.839 275.1 227.765 269.015 228.019C265.3 228.175 262.568 230.371 258.985 230.856C254.03 231.526 248.987 229.894 244 230.016C240.619 230.099 237.333 231.673 234.015 231.566C228.881 231.401 225.885 225.84 221.961 223.263C217.249 220.17 209.51 219.525 204 220.184C190.272 221.828 181.945 233.733 182.008 247C182.031 251.675 182.9 258.355 187 261z"/>
<path style="fill:#79eaff; stroke:none;" d="M92 222L93 223L92 222z"/>
<path style="fill:#ededed; stroke:none;" d="M234 268C243.588 267.913 246.968 262.146 247 253C255.574 261.041 260.049 274.529 275 270.431C279.732 269.134 283.002 265.667 288 265C288.167 267.038 288.336 269.034 288.943 271.004C293.285 285.096 304.571 270.438 313 270C310.134 268.797 306.364 268.445 303.464 269.938C300.415 271.507 298.093 275.642 294.105 274.339C288.284 272.436 292.337 262.002 286.852 261.546C281.577 261.108 276.448 267.841 271 268.733C259.115 270.679 253.083 254.319 253 245C243.03 245.758 242.349 255.861 242 264L234 264C233.492 261.227 232.638 257.088 228.895 257.465C223.632 257.995 219.087 264.7 213.999 266.672C202.933 270.961 188.108 261.68 186.228 249.985C183.758 234.612 200.006 219.198 215 224.955C218.745 226.393 221.965 228.797 224.363 232.015C225.709 233.822 226.614 236.719 228.633 237.914C231.72 239.739 233.308 236.282 234 234C228.094 233.098 226.338 228.361 221.816 225.133C216.793 221.547 209.896 221.514 204 222.289C189.136 224.245 182.365 238.063 184.429 252C185.19 257.139 186.658 261.964 191.054 265.15C198.118 270.269 210.114 272.023 217.999 267.954C220.71 266.554 224.953 261.12 227.944 261.188C231.009 261.257 232.989 265.674 234 268z"/>
<path style="fill:#c0bfbf; stroke:none;" d="M206 223C207.506 223.683 208.315 223.826 210 224C208.494 223.317 207.685 223.174 206 223z"/>
<path style="fill:#78eaff; stroke:none;" d="M95 224L96 225L95 224z"/>
<path style="fill:#71c8ed; stroke:none;" d="M135 224L136 225L135 224z"/>
<path style="fill:#929191; stroke:none;" d="M202 224L203 225L202 224z"/>
<path style="fill:#231f20; stroke:none;" d="M228 243L208 243L208 248L220 248C216.163 266.963 187.711 255.446 195.573 239.001C196.618 236.814 198.174 234.928 200.044 233.394C202.286 231.555 205.052 230.21 208 230.21C214.984 230.21 218.724 236.913 226 237C221.957 216.963 189.982 221.823 188.105 241C186.446 257.955 204.752 271.659 219.907 260.891C226.111 256.483 226.719 249.875 228 243z"/>
<path style="fill:#5b5859; stroke:none;" d="M212 224L213 225L212 224z"/>
<path style="fill:#868484; stroke:none;" d="M213 224L214 225L213 224z"/>
<path style="fill:#b8b7b7; stroke:none;" d="M214 224L215 225L214 224z"/>
<path style="fill:#b6f4ff; stroke:none;" d="M97 225L98 226L97 225z"/>
<path style="fill:#929191; stroke:none;" d="M199 225L200 226L199 225z"/>
<path style="fill:#8a8888; stroke:none;" d="M216 225L217 226L216 225z"/>
<path style="fill:#49e2ff; stroke:none;" d="M98 226L99 227L98 226z"/>
<path style="fill:#86d0f0; stroke:none;" d="M136 226L137 227L136 226z"/>
<path style="fill:#9e9c9d; stroke:none;" d="M197 226L198 227L197 226z"/>
<path style="fill:#878585; stroke:none;" d="M218 226L219 227L218 226z"/>
<path style="fill:#b3f3ff; stroke:none;" d="M100 227L101 228L100 227z"/>
<path style="fill:#b2b1b1; stroke:none;" d="M220 227L221 228L220 227z"/>
<path style="fill:#65e7ff; stroke:none;" d="M101 228L102 229L101 228z"/>
<path style="fill:#b0afb0; stroke:none;" d="M194 228L195 229L194 228z"/>
<path style="fill:#8f8d8d; stroke:none;" d="M221 228L222 229L221 228z"/>
<path style="fill:#fafafa; stroke:none;" d="M361 234C366.669 236.374 370.653 232.911 376 231.499C380.839 230.221 390.298 231.201 394.956 233.032C398.565 234.451 399.7 237.497 400.621 241C402.485 248.09 404.596 263.092 397.772 268.258C393.014 271.861 379.597 273.285 374.039 271.276C369.853 269.763 366.828 264.816 362 265.282C358.304 265.639 355.418 268.799 351.996 270.031C348.785 271.187 345.215 270.521 342.09 271.857C338.994 273.181 336.728 276.923 333.012 276.535C327.793 275.99 325.995 269.186 325 265C318.882 265.317 310.535 268.483 305.17 271.455C302.151 273.127 299.748 277.168 296.003 277.248C290.122 277.375 288.591 269.362 288 265C281.626 265.428 277.326 270.607 271 270.867C263.656 271.168 257.824 266.468 253.482 260.999C251.227 258.159 250.093 254.921 247 253C246.9 261.576 242.98 267.783 234 268C233.276 265.309 231.39 260.67 227.944 260.631C225.823 260.607 224.226 262.942 222.741 264.143C220.155 266.234 217.201 268.21 214 269.197C206.668 271.457 200.089 268.205 193 267C203.056 275.186 213.542 270.369 225 270.574C232.88 270.715 239.218 277.749 246.576 270.816C247.736 269.723 248.271 268.371 249 267C254.252 268.896 259.424 271.988 265 272.79C270.246 273.545 276.926 271.524 281.867 273.603C284.632 274.767 285.476 277.73 287.414 279.772C289.96 282.454 293.375 283.171 296.961 282.941C304.942 282.43 308.994 272.5 317.981 273.333C323.461 273.84 323.909 280.866 329.04 282.486C337.857 285.271 340.496 278.481 347.039 275.027C351.73 272.551 356.965 273.996 359 268C365.152 268.32 369.189 272.279 375 273.518C381.35 274.871 391.845 275.141 397.816 272.298C400.538 271.002 402.335 268.429 405 267C406 259.084 406.496 250.993 405.91 243C405.656 239.544 405.009 235.092 402.487 232.499C396.888 226.744 382.352 227.25 375.001 228.185C369.434 228.893 366.57 233.574 361 234z"/>
<path style="fill:#b7e3f6; stroke:none;" d="M137 229L137 254C139.413 248.25 139.413 234.75 137 229z"/>
<path style="fill:#908f8f; stroke:none;" d="M193 229L194 230L193 229z"/>
<path style="fill:#706e6e; stroke:none;" d="M222 229L223 230L222 229z"/>
<path style="fill:#58e5ff; stroke:none;" d="M103 230L104 231L103 230z"/>
<path style="fill:#9d9c9c; stroke:none;" d="M192 230L193 231L192 230z"/>
<path style="fill:#747172; stroke:none;" d="M204.667 230.333C204.222 230.778 205.278 230.722 205.333 230.667C205.778 230.222 204.722 230.278 204.667 230.333z"/>
<path style="fill:#949393; stroke:none;" d="M206 230C207.248 230.685 207.548 230.749 209 231C207.752 230.315 207.452 230.251 206 230z"/>
<path style="fill:#626060; stroke:none;" d="M209 230C210.248 230.685 210.548 230.749 212 231C210.752 230.315 210.452 230.251 209 230z"/>
<path style="fill:#838182; stroke:none;" d="M223 230L224 231L223 230z"/>
<path style="fill:#a5f1ff; stroke:none;" d="M104 231L105 232L104 231z"/>
<path style="fill:#b7b6b7; stroke:none;" d="M191 231L192 232L191 231z"/>
<path style="fill:#8b898a; stroke:none;" d="M202 231L203 232L202 231z"/>
<path style="fill:#e0e0e0; stroke:none;" d="M202 256C198.038 249.058 198.724 245.536 200 238C205.315 237.772 211.008 235.695 213 242L228 242C227.906 246.508 227.399 251.059 224.995 254.999C213.534 273.78 187.9 262.658 187 243C181.261 256.677 198.462 269.623 211 267.786C217.906 266.775 221.257 261.624 226.988 258.623C230.045 257.022 231.449 258.506 233 261C235.806 254.313 234 244.233 234 237C231.383 237.97 230.369 238.401 228 237C218.989 239.039 214.421 229.628 205.001 231.225C192.826 233.288 191.614 251.009 202 256z"/>
<path style="fill:#767474; stroke:none;" d="M213 231L214 232L213 231z"/>
<path style="fill:#9c9b9b; stroke:none;" d="M224 231L225 232L224 231z"/>
<path style="fill:#f1f1f1; stroke:none;" d="M292 233C294.332 233.985 296.457 233.981 299 234L299 238C302.638 235.812 306.472 232.659 311 233.438C316.209 234.333 326.204 248.332 328.772 238.001C329.084 236.744 328.969 235.272 329 234C322.356 234.55 317.379 231.845 311 231.129C305.002 230.455 297.837 231.61 292 233z"/>
<path style="fill:#f0f0f0; stroke:none;" d="M329 232L329 234C335.365 234 343.966 232.077 350 233.819C354.716 235.18 357.981 240.36 362.996 240.583C368.459 240.825 371.842 234.775 377 233.573C380.738 232.703 383.441 234.728 387 235.107C390.226 235.451 393.713 234.095 397 234C397.651 236.434 398.16 237.283 400 239C398.201 230.367 381.218 229.298 374 231.815C370.37 233.08 366.977 236.432 363 236.498C358.406 236.573 354.563 232.152 350 231.329C343.074 230.082 335.953 231.981 329 232z"/>
<path style="fill:#828081; stroke:none;" d="M200 232L201 233L200 232z"/>
<path style="fill:#797778; stroke:none;" d="M215 232L216 233L215 232z"/>
<path style="fill:#ececec; stroke:none;" d="M253 236L253 239C260.306 238.764 265.521 232.011 273 233.544C276.269 234.214 279.307 235.878 281.675 238.209C283.396 239.903 285.116 243.364 287.904 243.364C291.515 243.365 291.829 238.544 292 236C285.096 235.943 279.635 232.19 272.999 232.016C265.808 231.828 259.973 235.552 253 236z"/>
<path style="fill:#91eeff; stroke:none;" d="M105 233L106 234L105 233z"/>
<path style="fill:#656363; stroke:none;" d="M190 233L191 234L190 233z"/>
<path style="fill:#aaa9a9; stroke:none;" d="M199 233L200 234L199 233z"/>
<path style="fill:#959394; stroke:none;" d="M216 233L217 234L216 233z"/>
<path style="fill:#716f6f; stroke:none;" d="M225 233L226 234L225 233z"/>
<path style="fill:#999798; stroke:none;" d="M267.667 233.333C267.222 233.778 268.278 233.722 268.333 233.667C268.778 233.222 267.722 233.278 267.667 233.333z"/>
<path style="fill:#767374; stroke:none;" d="M269 233C270.248 233.685 270.548 233.749 272 234C270.752 233.315 270.452 233.251 269 233z"/>
<path style="fill:#a5a4a4; stroke:none;" d="M272.667 233.333C272.222 233.778 273.278 233.722 273.333 233.667C273.778 233.222 272.722 233.278 272.667 233.333z"/>
<path style="fill:#a3a2a2; stroke:none;" d="M306.667 233.333C306.222 233.778 307.278 233.722 307.333 233.667C307.778 233.222 306.722 233.278 306.667 233.333z"/>
<path style="fill:#7d7b7b; stroke:none;" d="M308 233C309.248 233.685 309.548 233.749 311 234C309.752 233.315 309.452 233.251 308 233z"/>
<path style="fill:#c6c5c6; stroke:none;" d="M311.667 233.333C311.222 233.778 312.278 233.722 312.333 233.667C312.778 233.222 311.722 233.278 311.667 233.333z"/>
<path style="fill:#868485; stroke:none;" d="M344 233C345.506 233.683 346.315 233.826 348 234C346.494 233.317 345.685 233.174 344 233z"/>
<path style="fill:#b0afaf; stroke:none;" d="M348.667 233.333C348.222 233.778 349.278 233.722 349.333 233.667C349.778 233.222 348.722 233.278 348.667 233.333z"/>
<path style="fill:#969495; stroke:none;" d="M376.667 233.333C376.222 233.778 377.278 233.722 377.333 233.667C377.778 233.222 376.722 233.278 376.667 233.333z"/>
<path style="fill:#787677; stroke:none;" d="M378 233C379.248 233.685 379.548 233.749 381 234C379.752 233.315 379.452 233.251 378 233z"/>
<path style="fill:#bebdbd; stroke:none;" d="M381.667 233.333C381.222 233.778 382.278 233.722 382.333 233.667C382.778 233.222 381.722 233.278 381.667 233.333z"/>
<path style="fill:#b9b8b8; stroke:none;" d="M189 234L190 235L189 234z"/>
<path style="fill:#acabab; stroke:none;" d="M217 234L218 235L217 234z"/>
<path style="fill:#666465; stroke:none;" d="M234 234L234 264C237.31 256.112 235 243.551 235 235L241 235C238.668 234.015 236.543 234.019 234 234z"/>
<path style="fill:#888686; stroke:none;" d="M246.667 234.333C246.222 234.778 247.278 234.722 247.333 234.667C247.778 234.222 246.722 234.278 246.667 234.333z"/>
<path style="fill:#5d5a5b; stroke:none;" d="M248 234C249.506 234.683 250.315 234.826 252 235C250.494 234.317 249.685 234.174 248 234z"/>
<path style="fill:#bcbbbb; stroke:none;" d="M252 234L252 240C252.951 237.715 252.951 236.285 252 234z"/>
<path style="fill:#999798; stroke:none;" d="M264 234L265 235L264 234z"/>
<path style="fill:#5b5859; stroke:none;" d="M265 234L266 235L265 234z"/>
<path style="fill:#231f20; stroke:none;" d="M266.001 234.558C255.421 237.346 252.221 251.946 259.394 259.786C263.307 264.062 270.55 265.06 276 263.566C285.585 260.94 288.668 247.69 283.297 240.043C279.435 234.545 272.306 232.896 266.001 234.558z"/>
<path style="fill:#848282; stroke:none;" d="M276 234L277 235L276 234z"/>
<path style="fill:#666364; stroke:none;" d="M292 234L292 274C293.661 270.041 293 265.26 293 261L293 235L299 235C296.668 234.015 294.543 234.019 292 234z"/>
<path style="fill:#888686; stroke:none;" d="M304 234L305 235L304 234z"/>
<path style="fill:#231f20; stroke:none;" d="M299 239L299 235L293 235L293 274L299 274L299 260C301.565 261.719 303.85 263.46 307.004 263.867C309.521 264.191 312.604 264.184 314.996 263.258C330.117 257.402 322.927 229.907 306.002 234.432C303.14 235.197 301.152 237.088 299 239z"/>
<path style="fill:#817f80; stroke:none;" d="M314 234L315 235L314 234z"/>
<path style="fill:#bdbcbc; stroke:none;" d="M329 234L329 274C330.552 270.301 330 265.983 330 262C330 253.729 332.206 241.639 329 234z"/>
<path style="fill:#5d5b5b; stroke:none;" d="M330 234C332.052 234.874 333.747 234.953 336 235C333.948 234.126 332.253 234.047 330 234z"/>
<path style="fill:#838182; stroke:none;" d="M336 234L336 239C336.83 236.969 336.83 236.031 336 234z"/>
<path style="fill:#e3e3e3; stroke:none;" d="M337 234L337 238L341 235C339.494 234.317 338.685 234.174 337 234z"/>
<path style="fill:#afaeae; stroke:none;" d="M341 234L342 235L341 234z"/>
<path style="fill:#5f5d5d; stroke:none;" d="M342 234L343 235L342 234z"/>
<path style="fill:#231f20; stroke:none;" d="M336 239L336 235L330 235L330 274L336 274L336 259C338.153 260.913 340.139 262.799 343.002 263.568C344.891 264.076 347.064 264.088 349 263.891C368.074 261.949 362.217 228.742 343.002 234.651C340.252 235.497 338.18 237.215 336 239z"/>
<path style="fill:#626060; stroke:none;" d="M351 234L352 235L351 234z"/>
<path style="fill:#a6a5a5; stroke:none;" d="M352 234L353 235L352 234z"/>
<path style="fill:#b6b5b6; stroke:none;" d="M373 234L374 235L373 234z"/>
<path style="fill:#696767; stroke:none;" d="M374 234L375 235L374 234z"/>
<path style="fill:#231f20; stroke:none;" d="M389 259C389.562 260.801 389.824 262.122 390 264L396 264L396 235L390 235L390 239C387.558 236.83 385.333 234.812 382 234.229C379.421 233.778 376.439 234.002 374.015 235.009C364.113 239.125 363.128 255.129 371.105 261.566C376.365 265.811 385.708 264.938 389 259z"/>
<path style="fill:#858384; stroke:none;" d="M384 234L385 235L384 234z"/>
<path style="fill:#5d5a5b; stroke:none;" d="M390 234C392.052 234.874 393.747 234.953 396 235C393.948 234.126 392.253 234.047 390 234z"/>
<path style="fill:#706e6e; stroke:none;" d="M396 234L396 264C398.395 258.293 397 250.154 397 244C397 240.581 397.328 237.166 396 234z"/>
<path style="fill:#535051; stroke:none;" d="M189 235L190 236L189 235z"/>
<path style="fill:#a6a5a5; stroke:none;" d="M197 235L198 236L197 235z"/>
<path style="fill:#838182; stroke:none;" d="M218 235L219 236L218 235z"/>
<path style="fill:#848283; stroke:none;" d="M226 235L227 236L226 235z"/>
<path style="fill:#231f20; stroke:none;" d="M235 235L235 264L241 264C241 254.262 239.198 241.426 252 240L252 235C247.291 235.056 244.625 235.934 241 239L241 235L235 235z"/>
<path style="fill:#908e8e; stroke:none;" d="M244 235L245 236L244 235z"/>
<path style="fill:#a09f9f; stroke:none;" d="M262 235L263 236L262 235z"/>
<path style="fill:#807e7e; stroke:none;" d="M278 235L279 236L278 235z"/>
<path style="fill:#9b999a; stroke:none;" d="M302 235L303 236L302 235z"/>
<path style="fill:#888687; stroke:none;" d="M316 235L317 236L316 235z"/>
<path style="fill:#565354; stroke:none;" d="M340 235L341 236L340 235z"/>
<path style="fill:#514e4f; stroke:none;" d="M353 235L354 236L353 235z"/>
<path style="fill:#c0bfbf; stroke:none;" d="M354 235L355 236L354 235z"/>
<path style="fill:#6a6768; stroke:none;" d="M372 235L373 236L372 235z"/>
<path style="fill:#929090; stroke:none;" d="M386 235L387 236L386 235z"/>
<path style="fill:#d7d7d7; stroke:none;" d="M389 235C389.031 236.832 388.921 236.559 390 238C389.749 236.548 389.685 236.248 389 235z"/>
<path style="fill:#8bedff; stroke:none;" d="M106 236L106 265C108.292 259.538 107 251.887 107 246C107 242.581 107.328 239.166 106 236z"/>
<path style="fill:#b3b2b2; stroke:none;" d="M188 236L189 237L188 236z"/>
<path style="fill:#7a7879; stroke:none;" d="M196 236L197 237L196 236z"/>
<path style="fill:#666465; stroke:none;" d="M226 236C223.894 236.644 222.205 236.906 220 237C221.629 237.939 227.259 239.051 226 236M243 236L244 237L243 236z"/>
<path style="fill:#585556; stroke:none;" d="M261 236L262 237L261 236z"/>
<path style="fill:#bcbbbb; stroke:none;" d="M280 236L281 237L280 236z"/>
<path style="fill:#6f6d6d; stroke:none;" d="M301 236L302 237L301 236z"/>
<path style="fill:#b3b2b2; stroke:none;" d="M338 236L339 237L338 236z"/>
<path style="fill:#8f8d8e; stroke:none;" d="M355 236L356 237L355 236z"/>
<path style="fill:#bdbcbc; stroke:none;" d="M370 236L371 237L370 236z"/>
<path style="fill:#646162; stroke:none;" d="M387 236L388 237L387 236z"/>
<path style="fill:#777576; stroke:none;" d="M188 237L189 238L188 237z"/>
<path style="fill:#f2f2f2; stroke:none;" d="M200 238C198.582 243.542 196.93 261.997 208.782 256.523C212.879 254.631 209.97 249.869 207 249C207.335 244.606 208.556 242.709 213 242C211.817 235.186 205.209 237.589 200 238z"/>
<path style="fill:#666364; stroke:none;" d="M242 237L243 238L242 237z"/>
<path style="fill:#a2a0a1; stroke:none;" d="M281 237L282 238L281 237z"/>
<path style="fill:#6e6c6d; stroke:none;" d="M300 237L301 238L300 237z"/>
<path style="fill:#7e7c7c; stroke:none;" d="M356 237L357 238L356 237z"/>
<path style="fill:#b5b4b4; stroke:none;" d="M369 237L370 238L369 237z"/>
<path style="fill:#666464; stroke:none;" d="M388 237L389 238L388 237z"/>
<path style="fill:#e7e7e7; stroke:none;" d="M397 237L397 255C396.994 257.903 397.321 261.233 395.397 263.656C391.145 269.01 378.42 269.009 373.001 265.852C370.123 264.176 367.877 260.709 364.715 259.658C360.805 258.359 357.885 262.385 354.91 264.117C348.484 267.858 339.698 266.63 337 275C334.5 274.919 331.596 275.044 330.028 272.682C328.32 270.11 329 265.923 329 263L329 240C326.871 241.299 325.483 241.814 323 242C323.376 244.975 324.111 247.994 323.657 251C321.815 263.172 310.479 266.666 300 268L300 272C304.857 269.827 309.008 269.772 314 268.363C317.845 267.278 320.952 265.415 325 265C325.822 270.481 328.614 278.944 335.91 276.407C338.952 275.349 340.875 272.479 344.015 271.514C347.676 270.389 351.374 271.139 354.87 269.16C357.612 267.609 359.103 263.515 362.174 262.751C366.022 261.794 370.241 267.557 374.001 268.525C379.991 270.069 394.764 270.753 398.543 264.722C401.176 260.521 400 253.73 400 249C400 244.338 400.485 240.413 397 237z"/>
<path style="fill:#807e7f; stroke:none;" d="M195 238L196 239L195 238z"/>
<path style="fill:#9a9999; stroke:none;" d="M241 238L242 239L241 238z"/>
<path style="fill:#a7a6a6; stroke:none;" d="M282 238L283 239L282 238z"/>
<path style="fill:#908e8f; stroke:none;" d="M299 238L300 239L299 238z"/>
<path style="fill:#898888; stroke:none;" d="M357 238L358 239L357 238z"/>
<path style="fill:#8c8b8b; stroke:none;" d="M389 238L390 239L389 238z"/>
<path style="fill:#bdbcbc; stroke:none;" d="M187 239L188 240L187 239z"/>
<path style="fill:#dfdfdf; stroke:none;" d="M242 259C244.677 252.697 244.727 246.287 253 245C253.032 256.05 259.308 271.872 273 268.529C276.972 267.56 283.857 260.626 287.682 262.256C290.922 263.637 290.296 271.041 291 274C292.552 270.301 292 265.983 292 262L292 241C289.962 242.395 288.373 243.349 286 244C287.17 251.097 285.224 258.041 278.985 262.297C269.562 268.724 256.737 261.913 255.217 251C254.609 246.635 256.402 242.923 258 239C253.701 239.273 245.636 240.207 243.179 244.228C240.816 248.096 242 254.641 242 259z"/>
<path style="fill:#535051; stroke:none;" d="M258 239L259 240L258 239z"/>
<path style="fill:#5e5b5c; stroke:none;" d="M320 239L321 240L320 239z"/>
<path style="fill:#b8b7b7; stroke:none;" d="M358 239L359 240L358 239z"/>
<path style="fill:#4d4a4b; stroke:none;" d="M368 239L369 240L368 239z"/>
<path style="fill:#7d7b7b; stroke:none;" d="M187.333 240.667C187.278 240.722 187.222 241.778 187.667 241.333C187.722 241.278 187.778 240.222 187.333 240.667z"/>
<path style="fill:#aeadad; stroke:none;" d="M247 240C248.769 240.779 250.036 240.912 252 241C250.231 240.221 248.964 240.088 247 240z"/>
<path style="fill:#7f7d7d; stroke:none;" d="M257 240L258 241L257 240z"/>
<path style="fill:#858384; stroke:none;" d="M267 240L268 241L267 240z"/>
<path style="fill:#d5d5d5; stroke:none;" d="M262 252C263.727 249.279 265.273 245.615 268.29 244.071C274.383 240.952 277.744 248.342 278 253C281.509 244.556 271.375 235.423 264.434 243.228C262.192 245.749 262.077 248.817 262 252z"/>
<path style="fill:#989697; stroke:none;" d="M273 240L274 241L273 240z"/>
<path style="fill:#535051; stroke:none;" d="M274 240L275 241L274 240z"/>
<path style="fill:#666364; stroke:none;" d="M304 240L305 241L304 240z"/>
<path style="fill:#a6a4a5; stroke:none;" d="M305 240L306 241L305 240z"/>
<path style="fill:#d5d5d5; stroke:none;" d="M300 253C303.991 245.948 307.63 240.054 315 248C316.576 242.004 309.003 238.708 304.109 241.322C299.7 243.676 300.012 248.693 300 253z"/>
<path style="fill:#a9a8a8; stroke:none;" d="M310 240L311 241L310 240z"/>
<path style="fill:#6f6d6d; stroke:none;" d="M311 240L312 241L311 240z"/>
<path style="fill:#989697; stroke:none;" d="M321 240L322 241L321 240z"/>
<path style="fill:#888787; stroke:none;" d="M342 240L343 241L342 240z"/>
<path style="fill:#d5d5d5; stroke:none;" d="M337 252C338.556 249.041 339.863 244.543 343.29 243.176C348.043 241.28 352.009 248.471 353 252C355.837 245.025 347.95 237.024 341.109 241.743C337.524 244.216 337.096 248.011 337 252z"/>
<path style="fill:#8f8e8e; stroke:none;" d="M348 240L349 241L348 240z"/>
<path style="fill:#e6e6e6; stroke:none;" d="M359 240C361.427 243.362 364.687 243.569 367 240C364.194 240.402 361.806 240.402 359 240z"/>
<path style="fill:#878586; stroke:none;" d="M367 240L368 241L367 240z"/>
<path style="fill:#737071; stroke:none;" d="M377 240L378 241L377 240z"/>
<path style="fill:#d6d6d6; stroke:none;" d="M373 248C374.846 246.47 376.693 244.269 379.079 243.618C384.681 242.09 387.234 248.768 388 253C392.899 241.3 375.669 234.894 373 248z"/>
<path style="fill:#a19fa0; stroke:none;" d="M383 240L384 241L383 240z"/>
<path style="fill:#5f5c5d; stroke:none;" d="M384 240L385 241L384 240z"/>
<path style="fill:#f1f1f1; stroke:none;" d="M400 240C400 246.892 402.531 260.116 397.347 265.49C392.555 270.458 378.949 270.355 373.004 267.852C367.17 265.395 363.074 258.578 358 266C365.598 264.675 367.421 269.793 374.039 271.571C379.907 273.147 396.214 272.258 399.86 266.772C402.594 262.659 402.007 256.682 402 252C401.994 247.794 402.003 243.768 400 240z"/>
<path style="fill:#7b7979; stroke:none;" d="M194.333 241.667C194.278 241.722 194.222 242.778 194.667 242.333C194.722 242.278 194.778 241.222 194.333 241.667z"/>
<path style="fill:#9f9d9e; stroke:none;" d="M245 241L246 242L245 241z"/>
<path style="fill:#716f6f; stroke:none;" d="M265 241L266 242L265 241z"/>
<path style="fill:#9a9999; stroke:none;" d="M275 241L276 242L275 241z"/>
<path style="fill:#999797; stroke:none;" d="M284 241L285 242L284 241z"/>
<path style="fill:#777576; stroke:none;" d="M340 241L341 242L340 241z"/>
<path style="fill:#898787; stroke:none;" d="M350 241L351 242L350 241z"/>
<path style="fill:#989697; stroke:none;" d="M359 241L360 242L359 241z"/>
<path style="fill:#524f50; stroke:none;" d="M375 241L376 242L375 241z"/>
<path style="fill:#a7a6a6; stroke:none;" d="M385 241L386 242L385 241z"/>
<path style="fill:#585556; stroke:none;" d="M187 242L187 246C187.71 244.241 187.71 243.759 187 242z"/>
<path style="fill:#bfbfbf; stroke:none;" d="M208 242C213.715 244.398 221.831 243 228 243C222.285 240.602 214.169 242 208 242z"/>
<path style="fill:#767474; stroke:none;" d="M256 242L257 243L256 242z"/>
<path style="fill:#838182; stroke:none;" d="M264 242L265 243L264 242z"/>
<path style="fill:#565354; stroke:none;" d="M314 242L315 243L314 242z"/>
<path style="fill:#9b999a; stroke:none;" d="M322 242L323 243L322 242z"/>
<path style="fill:#8c8b8b; stroke:none;" d="M339 242L340 243L339 242z"/>
<path style="fill:#e1e1e1; stroke:none;" d="M342.444 243.047C333.353 248.077 340.558 262.432 349.772 256.821C356.893 252.484 349.227 239.293 342.444 243.047z"/>
<path style="fill:#a3a2a2; stroke:none;" d="M351 242L352 243L351 242z"/>
<path style="fill:#8c8b8b; stroke:none;" d="M366 242L367 243L366 242z"/>
<path style="fill:#5e5c5c; stroke:none;" d="M374 242L375 243L374 242z"/>
<path style="fill:#939191; stroke:none;" d="M194 243L194 246C194.696 244.446 194.696 244.554 194 243z"/>
<path style="fill:#999898; stroke:none;" d="M207 243L207 249C207.951 246.715 207.951 245.285 207 243z"/>
<path style="fill:#636061; stroke:none;" d="M263 243L264 244L263 243z"/>
<path style="fill:#dfdfdf; stroke:none;" d="M267.444 244.032C258.63 249.226 266.258 261.889 274.852 256.821C282.357 252.395 275.214 239.452 267.444 244.032z"/>
<path style="fill:#9c9b9c; stroke:none;" d="M277 243L278 244L277 243z"/>
<path style="fill:#a5a4a4; stroke:none;" d="M285 243L286 244L285 243z"/>
<path style="fill:#dedede; stroke:none;" d="M305.214 244.043C296.899 248.674 303.001 261.665 311.941 256.82C320.162 252.365 312.722 239.862 305.214 244.043z"/>
<path style="fill:#555253; stroke:none;" d="M322 243L323 244L322 243z"/>
<path style="fill:#6f6d6e; stroke:none;" d="M338 243L339 244L338 243z"/>
<path style="fill:#878585; stroke:none;" d="M352 243L353 244L352 243z"/>
<path style="fill:#aeadae; stroke:none;" d="M360 243L361 244L360 243z"/>
<path style="fill:#d9d9d9; stroke:none;" d="M361 243C361.204 252.156 358.461 265.965 346 264.743C342.738 264.423 339.837 262.485 337 261L337 272C339.771 270.775 342.183 268.831 345 267.722C348.241 266.447 351.763 266.246 354.91 264.62C357.503 263.281 359.855 259.994 362.925 259.832C366.797 259.627 370.448 265.364 374 266.852C380.394 269.529 389.861 267.602 396 265C393.948 264.126 392.253 264.047 390 264L390 260C386.875 261.992 383.836 264.46 380 264.768C368.095 265.723 364.308 252.147 366 243L361 243z"/>
<path style="fill:#e0e0e0; stroke:none;" d="M377.329 243.939C368.305 248.647 376.329 261.815 384.852 256.82C392.027 252.615 384.924 239.976 377.329 243.939z"/>
<path style="fill:#716f70; stroke:none;" d="M242 244L243 245L242 244z"/>
<path style="fill:#abaaab; stroke:none;" d="M255 244L256 245L255 244z"/>
<path style="fill:#575555; stroke:none;" d="M278 244L279 245L278 244z"/>
<path style="fill:#6e6b6c; stroke:none;" d="M285 244L286 245L285 244z"/>
<path style="fill:#838282; stroke:none;" d="M300 244L301 245L300 244z"/>
<path style="fill:#959494; stroke:none;" d="M315 244L316 245L315 244z"/>
<path style="fill:#7c7a7b; stroke:none;" d="M360 244L361 245L360 244z"/>
<path style="fill:#9f9e9e; stroke:none;" d="M373 244L374 245L373 244z"/>
<path style="fill:#757373; stroke:none;" d="M388 244L389 245L388 244z"/>
<path style="fill:#413e3f; stroke:none;" d="M227 245L227 248C227.696 246.446 227.696 246.554 227 245z"/>
<path style="fill:#545152; stroke:none;" d="M255 245L255 248C255.696 246.446 255.696 246.554 255 245z"/>
<path style="fill:#6d6b6b; stroke:none;" d="M262 245L263 246L262 245z"/>
<path style="fill:#efefef; stroke:none;" d="M276 247C274.647 246.518 273.121 245.73 271.691 245.513C260.212 243.771 267.677 263.196 274.821 254.566C275.393 253.875 275.601 252.83 275.772 251.981C276.095 250.368 275.985 248.632 276 247z"/>
<path style="fill:#a6a5a5; stroke:none;" d="M278 245L279 246L278 245z"/>
<path style="fill:#ededed; stroke:none;" d="M305.434 246.032C300 249.636 304.709 259.854 311.137 255.275C316.742 251.283 311.126 242.257 305.434 246.032z"/>
<path style="fill:#858384; stroke:none;" d="M323 245L323 248C323.696 246.446 323.696 246.554 323 245z"/>
<path style="fill:#7f7e7e; stroke:none;" d="M337 245L338 246L337 245z"/>
<path style="fill:#8f8e8e; stroke:none;" d="M353 245L354 246L353 245z"/>
<path style="fill:#7b797a; stroke:none;" d="M365.333 245.667C365.278 245.722 365.222 246.778 365.667 246.333C365.722 246.278 365.778 245.222 365.333 245.667z"/>
<path style="fill:#e9e9e9; stroke:none;" d="M378.573 246.047C373.481 249.319 377.67 259.865 383.348 255.957C388.214 252.607 384.164 242.454 378.573 246.047z"/>
<path style="fill:#838282; stroke:none;" d="M187 246L187 249C187.696 247.446 187.696 247.554 187 246z"/>
<path style="fill:#5f5c5d; stroke:none;" d="M194.333 246.667C194.278 246.722 194.222 247.778 194.667 247.333C194.722 247.278 194.778 246.222 194.333 246.667z"/>
<path style="fill:#b8b8b8; stroke:none;" d="M286.333 246.667C286.278 246.722 286.222 247.778 286.667 247.333C286.722 247.278 286.778 246.222 286.333 246.667z"/>
<path style="fill:#898787; stroke:none;" d="M299.333 246.667C299.278 246.722 299.222 247.778 299.667 247.333C299.722 247.278 299.778 246.222 299.333 246.667z"/>
<path style="fill:#a7a6a6; stroke:none;" d="M316 246L316 251C316.83 248.97 316.83 248.03 316 246z"/>
<path style="fill:#afaeae; stroke:none;" d="M372 246L372 252C372.951 249.715 372.951 248.285 372 246z"/>
<path style="fill:#918f90; stroke:none;" d="M389 246L389 251C389.83 248.97 389.83 248.03 389 246z"/>
<path style="fill:#9a9999; stroke:none;" d="M241 247L241 264C242.883 259.513 242.883 251.486 241 247z"/>
<path style="fill:#646162; stroke:none;" d="M279 247L279 251C279.71 249.241 279.71 248.759 279 247z"/>
<path style="fill:#f1f1f1; stroke:none;" d="M343.607 248.043C340.051 250.783 344.942 256.652 348.393 253.381C351.763 250.187 347.053 245.389 343.607 248.043z"/>
<path style="fill:#4b4849; stroke:none;" d="M354 247L354 251C354.71 249.24 354.71 248.759 354 247z"/>
<path style="fill:#5d5a5b; stroke:none;" d="M365 247L365 251C365.71 249.24 365.71 248.759 365 247z"/>
<path style="fill:#f2f2f2; stroke:none;" d="M379.279 248.086C375.805 250.223 378.898 256.273 382.258 253.914C385.121 251.904 382.856 245.886 379.279 248.086z"/>
<path style="fill:#423f40; stroke:none;" d="M208 248C211.697 249.552 216.017 249 220 249C216.303 247.448 211.983 248 208 248z"/>
<path style="fill:#767475; stroke:none;" d="M227 248L228 249L227 248z"/>
<path style="fill:#a1a0a0; stroke:none;" d="M286 248L286 251C286.696 249.446 286.696 249.554 286 248z"/>
<path style="fill:#a09f9f; stroke:none;" d="M299 248L299 251C299.696 249.446 299.696 249.554 299 248z"/>
<path style="fill:#625f60; stroke:none;" d="M323 248L323 251C323.696 249.446 323.696 249.554 323 248z"/>
<path style="fill:#4a4748; stroke:none;" d="M336 248L336 251C336.696 249.446 336.696 249.554 336 248z"/>
<path style="fill:#b6b5b6; stroke:none;" d="M361.333 248.667C361.278 248.722 361.222 249.778 361.667 249.333C361.722 249.278 361.778 248.222 361.333 248.667z"/>
<path style="fill:#adacac; stroke:none;" d="M195 249L196 250L195 249z"/>
<path style="fill:#e2e2e2; stroke:none;" d="M210 249C210.497 254.27 209.572 256.575 204 257C207.333 258.386 210.514 257.647 214 257C213.883 254.27 213.501 251.686 213 249L210 249z"/>
<path style="fill:#d6d6d6; stroke:none;" d="M213 249L214 256C217.376 254.338 218.78 252.555 220 249L213 249z"/>
<path style="fill:#545151; stroke:none;" d="M188 250L189 251L188 250z"/>
<path style="fill:#666464; stroke:none;" d="M195 250L196 251L195 250z"/>
<path style="fill:#504d4e; stroke:none;" d="M255 250L255 253C255.696 251.446 255.696 251.554 255 250z"/>
<path style="fill:#8c8a8a; stroke:none;" d="M188 251L189 252L188 251z"/>
<path style="fill:#6c6a6b; stroke:none;" d="M219 251L220 252L219 251z"/>
<path style="fill:#737172; stroke:none;" d="M299 251L300 252L299 251z"/>
<path style="fill:#7d7b7b; stroke:none;" d="M316 251L317 252L316 251z"/>
<path style="fill:#969595; stroke:none;" d="M323.333 251.667C323.278 251.722 323.222 252.778 323.667 252.333C323.722 252.278 323.778 251.222 323.333 251.667z"/>
<path style="fill:#898787; stroke:none;" d="M365.333 251.667C365.278 251.722 365.222 252.778 365.667 252.333C365.722 252.278 365.778 251.222 365.333 251.667z"/>
<path style="fill:#646162; stroke:none;" d="M389 251L390 252L389 251z"/>
<path style="fill:#575555; stroke:none;" d="M196 252L197 253L196 252z"/>
<path style="fill:#868485; stroke:none;" d="M226 252L227 253L226 252z"/>
<path style="fill:#7f7d7d; stroke:none;" d="M262 252L263 253L262 252z"/>
<path style="fill:#989696; stroke:none;" d="M337 252L338 253L337 252z"/>
<path style="fill:#a4a3a3; stroke:none;" d="M353 252L354 253L353 252z"/>
<path style="fill:#565354; stroke:none;" d="M372 252L373 253L372 252z"/>
<path style="fill:#51e4ff; stroke:none;" d="M78 253L79 254L78 253z"/>
<path style="fill:#935aff; stroke:none;" d="M167 253L168 254L167 253z"/>
<path style="fill:#7a7879; stroke:none;" d="M189 253L190 254L189 253z"/>
<path style="fill:#7c797a; stroke:none;" d="M197 253L198 254L197 253z"/>
<path style="fill:#545152; stroke:none;" d="M218 253L219 254L218 253z"/>
<path style="fill:#9b999a; stroke:none;" d="M255 253L256 254L255 253z"/>
<path style="fill:#727070; stroke:none;" d="M278 253L279 254L278 253z"/>
<path style="fill:#5d5a5b; stroke:none;" d="M285 253L286 254L285 253z"/>
<path style="fill:#a6a4a5; stroke:none;" d="M300 253L301 254L300 253z"/>
<path style="fill:#4e4b4c; stroke:none;" d="M337 253L338 254L337 253z"/>
<path style="fill:#605d5e; stroke:none;" d="M353 253L354 254L353 253z"/>
<path style="fill:#6b696a; stroke:none;" d="M360 253L361 254L360 253z"/>
<path style="fill:#959394; stroke:none;" d="M388 253L389 254L388 253z"/>
<path style="fill:#b0f3ff; stroke:none;" d="M78 254L79 255L78 254z"/>
<path style="fill:#c6e9f8; stroke:none;" d="M137 254L137 273C139.02 268.187 139.02 258.813 137 254z"/>
<path style="fill:#c9adff; stroke:none;" d="M167 254L168 255L167 254z"/>
<path style="fill:#908e8e; stroke:none;" d="M198 254L199 255L198 254z"/>
<path style="fill:#737071; stroke:none;" d="M217 254L218 255L217 254z"/>
<path style="fill:#706e6f; stroke:none;" d="M225 254L226 255L225 254z"/>
<path style="fill:#878586; stroke:none;" d="M263 254L264 255L263 254z"/>
<path style="fill:#908e8f; stroke:none;" d="M285 254L286 255L285 254z"/>
<path style="fill:#5a5758; stroke:none;" d="M315 254L316 255L315 254z"/>
<path style="fill:#9c9a9b; stroke:none;" d="M338 254L339 255L338 254z"/>
<path style="fill:#b2b1b1; stroke:none;" d="M352 254L353 255L352 254z"/>
<path style="fill:#9a9899; stroke:none;" d="M360 254L361 255L360 254z"/>
<path style="fill:#646162; stroke:none;" d="M373 254L374 255L373 254z"/>
<path style="fill:#8b898a; stroke:none;" d="M190 255L191 256L190 255z"/>
<path style="fill:#716f6f; stroke:none;" d="M199 255L200 256L199 255z"/>
<path style="fill:#6c6a6a; stroke:none;" d="M216 255L217 256L216 255z"/>
<path style="fill:#5a5758; stroke:none;" d="M256 255L257 256L256 255z"/>
<path style="fill:#afaeae; stroke:none;" d="M264 255L265 256L264 255z"/>
<path style="fill:#6d6b6b; stroke:none;" d="M301 255L302 256L301 255z"/>
<path style="fill:#858484; stroke:none;" d="M314 255L315 256L314 255z"/>
<path style="fill:#7d7b7c; stroke:none;" d="M322 255L323 256L322 255z"/>
<path style="fill:#6e6c6d; stroke:none;" d="M366 255L367 256L366 255z"/>
<path style="fill:#8e8c8d; stroke:none;" d="M374 255L375 256L374 255z"/>
<path style="fill:#5f5c5d; stroke:none;" d="M387 255L388 256L387 255z"/>
<path style="fill:#d0b7ff; stroke:none;" d="M166 256L167 257L166 256z"/>
<path style="fill:#605d5e; stroke:none;" d="M191 256L192 257L191 256z"/>
<path style="fill:#a2a1a1; stroke:none;" d="M201 256L202 257L201 256z"/>
<path style="fill:#a7a6a6; stroke:none;" d="M214 256L215 257L214 256z"/>
<path style="fill:#8d8b8c; stroke:none;" d="M224 256L225 257L224 256z"/>
<path style="fill:#a3a1a2; stroke:none;" d="M265 256L266 257L265 256z"/>
<path style="fill:#777575; stroke:none;" d="M284 256L285 257L284 256z"/>
<path style="fill:#6a6768; stroke:none;" d="M302 256L303 257L302 256z"/>
<path style="fill:#828080; stroke:none;" d="M313 256L314 257L313 256z"/>
<path style="fill:#b0b0b0; stroke:none;" d="M340 256L341 257L340 256z"/>
<path style="fill:#777576; stroke:none;" d="M359 256L360 257L359 256z"/>
<path style="fill:#878585; stroke:none;" d="M375 256L376 257L375 256z"/>
<path style="fill:#5e5b5b; stroke:none;" d="M386 256L387 257L386 256z"/>
<path style="fill:#88ecff; stroke:none;" d="M80 257L81 258L80 257z"/>
<path style="fill:#9964ff; stroke:none;" d="M165 257L166 258L165 257z"/>
<path style="fill:#848282; stroke:none;" d="M203 257L204 258L203 257z"/>
<path style="fill:#b6b5b5; stroke:none;" d="M211 257L212 258L211 257z"/>
<path style="fill:#888687; stroke:none;" d="M212 257L213 258L212 257z"/>
<path style="fill:#5a5858; stroke:none;" d="M223 257L224 258L223 257z"/>
<path style="fill:#5e5c5c; stroke:none;" d="M257 257L258 258L257 257z"/>
<path style="fill:#625f60; stroke:none;" d="M266 257L267 258L266 257z"/>
<path style="fill:#838181; stroke:none;" d="M274 257L275 258L274 257z"/>
<path style="fill:#9f9e9e; stroke:none;" d="M304 257L305 258L304 257z"/>
<path style="fill:#acabab; stroke:none;" d="M311 257L312 258L311 257z"/>
<path style="fill:#4f4c4d; stroke:none;" d="M312 257L313 258L312 257z"/>
<path style="fill:#757273; stroke:none;" d="M321 257L322 258L321 257z"/>
<path style="fill:#6f6d6e; stroke:none;" d="M341 257L342 258L341 257z"/>
<path style="fill:#7f7d7e; stroke:none;" d="M349 257L350 258L349 257z"/>
<path style="fill:#626060; stroke:none;" d="M367 257L368 258L367 257z"/>
<path style="fill:#524f4f; stroke:none;" d="M376 257L377 258L376 257z"/>
<path style="fill:#abaaab; stroke:none;" d="M377 257L378 258L377 257z"/>
<path style="fill:#969494; stroke:none;" d="M384 257L385 258L384 257z"/>
<path style="fill:#52e4ff; stroke:none;" d="M81 258L82 259L81 258z"/>
<path style="fill:#4a4747; stroke:none;" d="M206 258C207.506 258.683 208.315 258.826 210 259C208.494 258.317 207.685 258.174 206 258z"/>
<path style="fill:#6a6768; stroke:none;" d="M269 258C270.506 258.683 271.315 258.826 273 259C271.494 258.317 270.685 258.174 269 258z"/>
<path style="fill:#989797; stroke:none;" d="M283 258L284 259L283 258z"/>
<path style="fill:#716f70; stroke:none;" d="M306 258C307.506 258.683 308.315 258.826 310 259C308.494 258.317 307.685 258.174 306 258z"/>
<path style="fill:#6a6768; stroke:none;" d="M343 258C344.769 258.779 346.036 258.912 348 259C346.231 258.221 344.964 258.088 343 258z"/>
<path style="fill:#8a8889; stroke:none;" d="M358 258L359 259L358 258z"/>
<path style="fill:#6d6b6c; stroke:none;" d="M379 258C380.506 258.683 381.315 258.826 383 259C381.494 258.317 380.685 258.174 379 258z"/>
<path style="fill:#98efff; stroke:none;" d="M82 259L83 260L82 259z"/>
<path style="fill:#9259ff; stroke:none;" d="M163 259L164 260L163 259z"/>
<path style="fill:#aeadad; stroke:none;" d="M258 259L259 260L258 259z"/>
<path style="fill:#767474; stroke:none;" d="M282 259L283 260L282 259z"/>
<path style="fill:#b1b0b0; stroke:none;" d="M320 259L321 260L320 259z"/>
<path style="fill:#3f3c3d; stroke:none;" d="M336 259L336 274C337.74 269.852 337.74 263.148 336 259z"/>
<path style="fill:#5c595a; stroke:none;" d="M357 259L358 260L357 259z"/>
<path style="fill:#9b9a9a; stroke:none;" d="M368 259L369 260L368 259z"/>
<path style="fill:#646162; stroke:none;" d="M389 259L390 260L389 259z"/>
<path style="fill:#a677ff; stroke:none;" d="M162 260L163 261L162 260z"/>
<path style="fill:#636061; stroke:none;" d="M195 260L196 261L195 260z"/>
<path style="fill:#4f4b4c; stroke:none;" d="M220 260L221 261L220 260z"/>
<path style="fill:#999898; stroke:none;" d="M259 260L260 261L259 260z"/>
<path style="fill:#676565; stroke:none;" d="M281 260L282 261L281 260z"/>
<path style="fill:#9c9b9b; stroke:none;" d="M299 260L299 274C300.667 270.028 300.667 263.972 299 260z"/>
<path style="fill:#4d4a4a; stroke:none;" d="M300 260L301 261L300 260z"/>
<path style="fill:#939292; stroke:none;" d="M319 260L320 261L319 260z"/>
<path style="fill:#979697; stroke:none;" d="M337 260L338 261L337 260z"/>
<path style="fill:#7a7878; stroke:none;" d="M369 260L370 261L369 260z"/>
<path style="fill:#99efff; stroke:none;" d="M85 261L86 262L85 261z"/>
<path style="fill:#c9adff; stroke:none;" d="M161 261L162 262L161 261z"/>
<path style="fill:#8d8b8c; stroke:none;" d="M196 261L197 262L196 261z"/>
<path style="fill:#757373; stroke:none;" d="M219 261L220 262L219 261z"/>
<path style="fill:#adadad; stroke:none;" d="M260 261L261 262L260 261z"/>
<path style="fill:#838181; stroke:none;" d="M280 261L281 262L280 261z"/>
<path style="fill:#d9d9d9; stroke:none;" d="M300 261L300 268C305.182 267.656 310.918 266.21 316 265C313.325 264.177 310.77 265.051 308 264.617C305.057 264.156 302.536 262.447 300 261z"/>
<path style="fill:#9f9e9e; stroke:none;" d="M318 261L319 262L318 261z"/>
<path style="fill:#7c7a7b; stroke:none;" d="M338 261L339 262L338 261z"/>
<path style="fill:#555253; stroke:none;" d="M355 261L356 262L355 261z"/>
<path style="fill:#828081; stroke:none;" d="M370 261L371 262L370 261z"/>
<path style="fill:#ba95ff; stroke:none;" d="M159 262L160 263L159 262z"/>
<path style="fill:#7d7b7b; stroke:none;" d="M198 262L199 263L198 262z"/>
<path style="fill:#615e5f; stroke:none;" d="M217 262L218 263L217 262z"/>
<path style="fill:#646162; stroke:none;" d="M262 262L263 263L262 262z"/>
<path style="fill:#aaa9a9; stroke:none;" d="M279 262L280 263L279 262z"/>
<path style="fill:#5d5a5b; stroke:none;" d="M302 262L303 263L302 262z"/>
<path style="fill:#9a9899; stroke:none;" d="M339 262L340 263L339 262z"/>
<path style="fill:#7c7a7b; stroke:none;" d="M354 262L355 263L354 262z"/>
<path style="fill:#9c9a9b; stroke:none;" d="M371 262L372 263L371 262z"/>
<path style="fill:#585556; stroke:none;" d="M386 262L387 263L386 262z"/>
<path style="fill:#93eeff; stroke:none;" d="M88 263L89 264L88 263z"/>
<path style="fill:#ab7fff; stroke:none;" d="M157 263L158 264L157 263z"/>
<path style="fill:#8a8889; stroke:none;" d="M200 263L201 264L200 263z"/>
<path style="fill:#545152; stroke:none;" d="M201 263L202 264L201 263z"/>
<path style="fill:#7a7879; stroke:none;" d="M215 263L216 264L215 263z"/>
<path style="fill:#5e5b5c; stroke:none;" d="M264 263L265 264L264 263z"/>
<path style="fill:#999798; stroke:none;" d="M277 263L278 264L277 263z"/>
<path style="fill:#918f90; stroke:none;" d="M303 263L304 264L303 263M315 263L316 264L315 263z"/>
<path style="fill:#6c6a6a; stroke:none;" d="M341 263L342 264L341 263z"/>
<path style="fill:#646162; stroke:none;" d="M352 263L353 264L352 263z"/>
<path style="fill:#777575; stroke:none;" d="M373 263L374 264L373 263z"/>
<path style="fill:#918f8f; stroke:none;" d="M385 263L386 264L385 263z"/>
<path style="fill:#7e7c7c; stroke:none;" d="M203 264C204.248 264.685 204.549 264.749 206 265C204.752 264.315 204.452 264.251 203 264z"/>
<path style="fill:#4a4748; stroke:none;" d="M206 264C207.248 264.685 207.549 264.749 209 265C207.752 264.315 207.452 264.251 206 264z"/>
<path style="fill:#6b696a; stroke:none;" d="M209 264C210.506 264.683 211.315 264.826 213 265C211.494 264.317 210.685 264.174 209 264z"/>
<path style="fill:#9f9d9e; stroke:none;" d="M266 264L267 265L266 264z"/>
<path style="fill:#5e5b5c; stroke:none;" d="M267.667 264.333C267.222 264.778 268.278 264.722 268.333 264.667C268.778 264.222 267.722 264.278 267.667 264.333z"/>
<path style="fill:#3f3c3d; stroke:none;" d="M269 264C270.248 264.685 270.548 264.749 272 265C270.752 264.315 270.452 264.251 269 264z"/>
<path style="fill:#6b6869; stroke:none;" d="M272 264C273.248 264.685 273.548 264.749 275 265C273.752 264.315 273.452 264.251 272 264z"/>
<path style="fill:#646162; stroke:none;" d="M306.667 264.333C306.222 264.778 307.278 264.722 307.333 264.667C307.778 264.222 306.722 264.278 306.667 264.333z"/>
<path style="fill:#403c3d; stroke:none;" d="M308 264C309.248 264.685 309.548 264.749 311 265C309.752 264.315 309.452 264.251 308 264z"/>
<path style="fill:#7f7d7d; stroke:none;" d="M311.667 264.333C311.222 264.778 312.278 264.722 312.333 264.667C312.778 264.222 311.722 264.278 311.667 264.333z"/>
<path style="fill:#6e6c6c; stroke:none;" d="M343.667 264.333C343.222 264.778 344.278 264.722 344.333 264.667C344.778 264.222 343.722 264.278 343.667 264.333z"/>
<path style="fill:#433f40; stroke:none;" d="M345 264C346.248 264.685 346.548 264.749 348 265C346.752 264.315 346.452 264.251 345 264z"/>
<path style="fill:#6d6b6b; stroke:none;" d="M348.667 264.333C348.222 264.778 349.278 264.722 349.333 264.667C349.778 264.222 348.722 264.278 348.667 264.333z"/>
<path style="fill:#9a9899; stroke:none;" d="M350 264L351 265L350 264z"/>
<path style="fill:#a3a2a3; stroke:none;" d="M375 264L376 265L375 264z"/>
<path style="fill:#5c595a; stroke:none;" d="M376.667 264.333C376.222 264.778 377.278 264.722 377.333 264.667C377.778 264.222 376.722 264.278 376.667 264.333z"/>
<path style="fill:#413e3f; stroke:none;" d="M378 264C379.248 264.685 379.548 264.749 381 265C379.752 264.315 379.452 264.251 378 264z"/>
<path style="fill:#7f7d7d; stroke:none;" d="M381.667 264.333C381.222 264.778 382.278 264.722 382.333 264.667C382.778 264.222 381.722 264.278 381.667 264.333z"/>
<path style="fill:#acf2ff; stroke:none;" d="M91 265L92 266L91 265z"/>
<path style="fill:#bef5ff; stroke:none;" d="M106 265L106 274C107.256 271.006 107.256 267.994 106 265z"/>
<path style="fill:#b58eff; stroke:none;" d="M154 265L155 266L154 265z"/>
<path style="fill:#64e7ff; stroke:none;" d="M93 266L94 267L93 266z"/>
<path style="fill:#8341ff; stroke:none;" d="M152 266L153 267L152 266z"/>
<path style="fill:#bf9eff; stroke:none;" d="M151 267L152 268L151 267z"/>
<path style="fill:#68e7ff; stroke:none;" d="M96 268L97 269L96 268z"/>
<path style="fill:#9055ff; stroke:none;" d="M149 268L150 269L149 268z"/>
<path style="fill:#cbb0ff; stroke:none;" d="M148 269L149 270L148 269z"/>
<path style="fill:#9df0ff; stroke:none;" d="M99 270L100 271L99 270z"/>
<path style="fill:#9963ff; stroke:none;" d="M146 270L147 271L146 270z"/>
<path style="fill:#4ae3ff; stroke:none;" d="M101 271L102 272L101 271z"/>
<path style="fill:#d4beff; stroke:none;" d="M145 271L146 272L145 271z"/>
<path style="fill:#99efff; stroke:none;" d="M102 272L103 273L102 272z"/>
<path style="fill:#a373ff; stroke:none;" d="M143 272L144 273L143 272z"/>
<path style="fill:#4ae3ff; stroke:none;" d="M104 273L105 274L104 273z"/>
<path style="fill:#95d6f2; stroke:none;" d="M137 273L137 276C137.696 274.446 137.696 274.554 137 273z"/>
<path style="fill:#ac80ff; stroke:none;" d="M140 274L141 275L140 274z"/>
<path style="fill:#c5c4c4; stroke:none;" d="M292 274C294.332 274.985 296.457 274.981 299 275C296.668 274.015 294.543 274.019 292 274z"/>
<path style="fill:#c6c5c5; stroke:none;" d="M330 274C332.332 274.985 334.457 274.981 337 275C334.668 274.015 332.543 274.019 330 274z"/>
<path style="fill:#4ab9e8; stroke:none;" d="M136 276L137 277L136 276z"/>
<path style="fill:#66c4ec; stroke:none;" d="M110 277L111 278L110 277z"/>
<path style="fill:#85d0f0; stroke:none;" d="M135 277L136 278L135 277z"/>
<path style="fill:#53bce9; stroke:none;" d="M133 278L134 279L133 278z"/>
<path style="fill:#93d5f1; stroke:none;" d="M113 279L114 280L113 279z"/>
<path style="fill:#5cc0eb; stroke:none;" d="M115 280L116 281L115 280z"/>
<path style="fill:#86d0f0; stroke:none;" d="M130 280L131 281L130 280z"/>
<path style="fill:#7bccee; stroke:none;" d="M118 282L119 283L118 282z"/>
<path style="fill:#88d1f0; stroke:none;" d="M127 282L128 283L127 282z"/>
<path style="fill:#4bb9e8; stroke:none;" d="M120 283L121 284L120 283z"/>
<path style="fill:#47b8e8; stroke:none;" d="M125 283L126 284L125 283z"/>
<path style="fill:#addff5; stroke:none;" d="M122.667 284.333C122.222 284.778 123.278 284.722 123.333 284.667C123.778 284.222 122.722 284.278 122.667 284.333z"/>
</svg>
